PathFileType	4	(X/Y/Z)	49_2_rein_35_p1_0-225_filt_butterworth.trc
DataRate	CameraRate	NumFrames	NumMarkers	Units	OrigDataRate	OrigDataStartFrame	OrigNumFrames
59.0	59.0	7	27	m	59.0	56	225
Frame#	Time	RHip			RKnee			RAnkle			RBigToe			RSmallToe			RHeel			LHip			LKnee			LAnkle			LBigToe			LSmallToe			LHeel			Neck			Head			Nose			RShoulder			RElbow			RWrist			RThumb			RIndex			RPinky			LShoulder			LElbow			LWrist			LThumb			LIndex			LPinky			
		X1	Y1	Z1	X2	Y2	Z2	X3	Y3	Z3	X4	Y4	Z4	X5	Y5	Z5	X6	Y6	Z6	X7	Y7	Z7	X8	Y8	Z8	X9	Y9	Z9	X10	Y10	Z10	X11	Y11	Z11	X12	Y12	Z12	X13	Y13	Z13	X14	Y14	Z14	X15	Y15	Z15	X16	Y16	Z16	X17	Y17	Z17	X18	Y18	Z18	X19	Y19	Z19	X20	Y20	Z20	X21	Y21	Z21	X22	Y22	Z22	X23	Y23	Z23	X24	Y24	Z24	X25	Y25	Z25	X26	Y26	Z26	X27	Y27	Z27	
56	0.9491525423728814	0.3887197247474473	0.648859770353875	0.8981801383237255	0.35745035525139446	0.14304015526915553	0.9452525198413558	0.3303518276335703	-0.32762495191346186	1.0137841544257211	0.301000482856446	-0.3122696843542392	0.7677363486063711	0.3717381797364103	-0.31212512246774016	0.7837077309762011	0.3222112197216456	-0.3944359539451021	1.0827945230662446	0.17463252775678603	0.6506059867294789	0.9109942620846202	0.18319337715803605	0.15576756368053946	0.9438721985504985	0.18994338594993315	-0.32169889392894657	1.0184396479091444	0.1588246918936384	-0.30150351167479805	0.7810445323677423	0.11673229030592089	-0.32051311158365287	0.8288531626159704	0.20172093535406538	-0.4193494805440191	1.0925672839142906	0.2766190887473366	1.1493653403783763	0.9053983412385114	0.2811564133982213	1.3936816656769526	0.861114447609034	0.26976900482484484	1.2683951170545174	0.7777044110181477	0.4369265036901186	1.0786939743692112	0.9109406673087218	0.502120295756325	0.8254519699487596	0.9058738595346285	0.5004418863809598	0.5628447345429494	0.8667762038953515	0.42304643170058476	0.4421761253044737	0.8249613488065	0.4465356263437601	0.4422475066519709	0.7894152027258547	0.48882964395134965	0.4205264176196635	0.8524161771676718	0.1164290821292088	1.0955024384043466	0.9584971122943824	0.045682412537955935	0.8386797642587527	0.9764285713091666	0.0032974361846452097	0.5923861867535192	0.9346256512904583	0.004427680074546472	0.4802927745951894	0.9070850689043038	-0.026052525001811426	0.4695748763058948	0.8770279493432507	-0.014166073847607326	0.46697616988457846	0.8847875941643109	
57	0.9661016949152542	0.3885932012423211	0.6489789140426707	0.8981937133206284	0.35780887008191276	0.14378324698699418	0.945266306426601	0.33032020080501556	-0.32788216961067485	1.0141235069122236	0.3020628159656623	-0.31282831074415424	0.7708115235351731	0.3718297860905916	-0.3114107804225288	0.7840908305765065	0.322580659546127	-0.394481903442241	1.082795254208899	0.17421394301165685	0.6504535548719632	0.9126866104508549	0.18338936712653578	0.15615312410060078	0.9436695730965803	0.19015163751803357	-0.32271249447602823	1.0192475483365262	0.15888601904762695	-0.29807629801209445	0.7787369437293938	0.11714085126774809	-0.31629684915827067	0.8272976142100076	0.20158644021255956	-0.4201345641443629	1.0925684562635558	0.27664838262249125	1.148763843971345	0.9055018654416491	0.2810586850140546	1.394485158369664	0.8610481320584193	0.2693065387828498	1.2682700844204104	0.7757545578546003	0.4370218213538958	1.0786639532835847	0.9111223634158199	0.5031336757835734	0.8250390912425745	0.9074250238011834	0.5025193997362039	0.5628384921535535	0.869150723596371	0.42673853887856683	0.4420047440213586	0.8308818084599343	0.45174769172732665	0.4409799611183949	0.7947338311629651	0.49306112852443806	0.4154781273283016	0.8677012186734367	0.11645890824059137	1.0956254552404467	0.9583835735312853	0.042130639055467406	0.8385363640317177	0.9817810852461042	0.0019608548116959003	0.5949552680116299	0.9366904852834164	0.0034283193955852312	0.48020114657100255	0.9134960282391005	-0.030064097532607803	0.47024070500677556	0.8807203989695116	-0.017722226451572107	0.4670634154691796	0.8894390540941137	
58	0.9830508474576272	0.38851808680971256	0.6490700419179156	0.8982247636600148	0.3581357626173537	0.14439046785872028	0.9456340902782086	0.3303913865452723	-0.3280993911657917	1.0145213684038998	0.3034855931942656	-0.3138035072867061	0.7747407968348549	0.37200146929883937	-0.31078234695353435	0.7845667715842565	0.3229360886442887	-0.39448033122256054	1.0828018038118468	0.17381561512460722	0.6504189274988541	0.9141842049968452	0.18355042227394738	0.15628828041358794	0.9437676829085445	0.19028138919383766	-0.3233391454280726	1.0198212120154149	0.1593309441018902	-0.29442376432925055	0.7758807527587751	0.11764339344240408	-0.3118436089627224	0.8257002489604407	0.20148565421856032	-0.4207847828173982	1.0925900877605683	0.276656533513378	1.1484130856380501	0.905552018763609	0.28091528500427854	1.3952077102522416	0.8611567761594772	0.2693087161336881	1.268004098656685	0.7736426729259471	0.43713432810322755	1.0787270062392202	0.9113906315176441	0.504100994745495	0.8243833845234677	0.910759100111405	0.5042717884642047	0.5633707774595462	0.8713736983295145	0.43049176198393213	0.44238988064780727	0.8360415913085504	0.4565829340336264	0.43982269137607743	0.800567933998524	0.49604774224369663	0.41250957997946675	0.8793379426607077	0.11648698098692975	1.0959345407062708	0.9583370103068745	0.03983561076984179	0.8390482829956067	0.9848033917576774	0.0012294600044985599	0.5970314553150498	0.9396019974457683	0.0036043684815517387	0.4808655749736269	0.9179992469971898	-0.03475818304754976	0.47014631071104995	0.8879686769741251	-0.021502318477760345	0.46655853049377816	0.8966350472138125	
59	1.0	0.38839205636570806	0.6491770021685831	0.8982753797542484	0.3583637964843053	0.14482347421609143	0.9462638290611339	0.33054486296335184	-0.32828477999156874	1.0150258620194028	0.30496467153494544	-0.3150646604282625	0.7785791780758295	0.3721439840589297	-0.31031481049341575	0.7850762469459486	0.32327176589151907	-0.3944338987742937	1.0828162839833608	0.17348872577526667	0.6505322831423273	0.9154303565033652	0.18363363518237732	0.1561823424165728	0.9440830263390501	0.19034399524137968	-0.3235805173433585	1.0201190992115128	0.1601253512432464	-0.29106547101204927	0.7728855598733966	0.11829509752849222	-0.30761785453579105	0.8237105462671769	0.2014183383074367	-0.42130976822448285	1.0926463463395197	0.27664555141002617	1.1483230051015898	0.9055505010804166	0.28079968325109783	1.395767860831771	0.8612359431515457	0.26978122929191545	1.267668042465375	0.7713848182965779	0.43722282191483836	1.078988437763465	0.9118024032017519	0.5049298557529001	0.8238054494724784	0.9155246660510731	0.5060480298717216	0.564358443675156	0.874128142474971	0.43437964359282943	0.44271530281253335	0.8415100748190492	0.46103570964379365	0.43862392934943706	0.8071601466423493	0.49789188175910654	0.4116010079349198	0.8872629206501814	0.11651155753240433	1.0964160097972897	0.9583707799420048	0.03848587371406032	0.8400946682562358	0.9863882488057911	0.0009135761421753846	0.5985663171867531	0.9432818916758434	0.0041547418148478645	0.4814411893478008	0.9228703825252709	-0.03997416964479491	0.46920310947589494	0.8987871795986663	-0.02504239279517447	0.46566106683134245	0.9056594320093015	
60	1.0169491525423728	0.3881712866768158	0.6493066622187078	0.8983417158830429	0.358460126065582	0.14509638979975115	0.9470891204660075	0.33071401375386233	-0.3284460604986223	1.0155483355905466	0.30627283599622973	-0.31642631560427087	0.7816826324414692	0.37224007996213193	-0.31001356245644607	0.785548143851287	0.3235809946999065	-0.3943505083977622	1.0828470524707148	0.17323434858080264	0.6507630875979744	0.9164607435691468	0.18360555761758177	0.15594627614650775	0.944436703551066	0.19036091137530523	-0.32352645391837476	1.0201565154067256	0.161139187068793	-0.2884130052818432	0.7701470660149489	0.11909612790593802	-0.3040373643429526	0.8211362171582197	0.2013685644357487	-0.4217028639413814	1.0927255140090346	0.27662465840131534	1.148390674067868	0.9055203615715837	0.28083298776922816	1.3961521269644306	0.8608544439151069	0.2705105013957141	1.267273158070032	0.7691501223099151	0.43720334876774336	1.079410857410195	0.9121346520051277	0.5055529003723191	0.8236217179216911	0.9210429568252911	0.508093758030343	0.5657943746998226	0.87719956977493	0.43836330872121165	0.4428524487537241	0.847638823338283	0.4650673919467967	0.4372504293635846	0.8144784600730035	0.49895268849168617	0.4122558729055312	0.8925370393320801	0.1165293890014254	1.096997992079831	0.9584790779416872	0.03761826570735688	0.8411521044387393	0.9874588569448979	0.0010851852803422726	0.5995451331494248	0.9472839542425432	0.004560946601897026	0.48153734525157854	0.9288452178785902	-0.0449699957442849	0.46739652269386844	0.9117460071768313	-0.027676028425113013	0.4643588983762656	0.9154312751092064	
61	1.0338983050847457	0.3879165650146035	0.6494256290941796	0.8984078433695843	0.35841391902409303	0.14523963825909114	0.9480693180732296	0.33083624202828926	-0.32856734956691297	1.0159309603407078	0.3073707939339839	-0.3178437636983738	0.7840386067653966	0.37230460819307554	-0.30987149561428357	0.7858978129107349	0.32385398646118313	-0.39423334340010263	1.0829078315582603	0.17303775720879486	0.6510096791875359	0.9172988457639372	0.18347424304225968	0.15572361291443448	0.9446757939309205	0.19036742727762845	-0.3233405993257562	1.0200467851414483	0.16221027452301473	-0.28669925281642533	0.768022917721817	0.11996973733143049	-0.3014398972402866	0.8181528242628097	0.201318657375119	-0.422002956000388	1.0928028364715978	0.27660385472530075	1.148471400772323	0.9054908138313005	0.2810995104523756	1.396385811948277	0.8597036179527483	0.2711688580190929	1.2667642724372727	0.7673022689089618	0.4369886028640212	1.0798898137670445	0.911835620177617	0.5059726075256072	0.8240854612315833	0.9265924778089882	0.5104854649827446	0.5675667548989105	0.8801518692318563	0.442199797970398	0.44292916020117273	0.8540282454379293	0.4684969214074487	0.4354657431323531	0.8226321638675436	0.4995356311884287	0.41370077174505027	0.8966744902072925	0.11653767700839276	1.0975946863660888	0.9586471115893176	0.03690643378104396	0.8416709091900573	0.988530892217665	0.0017541904493384363	0.5999813669450135	0.9514326556654695	0.004787969626972032	0.48126959142033066	0.9352812813385403	-0.04907916565114703	0.4649196157481706	0.924906119584144	-0.0288992342604854	0.4625470199140264	0.9247786425543363	
62	1.0508474576271187	0.3876901157517909	0.6494837149712138	0.8984503481916246	0.35823532750428505	0.1452432274554442	0.9491743993704694	0.3308866651904385	-0.32863552267010243	1.0160889926826486	0.30829611354659386	-0.31932993907589335	0.7858956250437305	0.3723463026207784	-0.3098413479286836	0.7860795617650992	0.32407936503287965	-0.3940651903733345	1.0830084065599017	0.17286850173685953	0.6511583902288433	0.9179312802867865	0.18327932631900282	0.15558780666652833	0.9447876379181976	0.1904111954850583	-0.32317019575109884	1.0199695423223156	0.1631868044928847	-0.2859694995134414	0.7667912693301269	0.12078785496727726	-0.29992313923841024	0.8152445972135122	0.2012686791080495	-0.42225210370128147	1.0928690615758712	0.27658714355241704	1.1484921738498572	0.905475020222642	0.28159226179024655	1.3964924923581468	0.8578144671557209	0.2715009655432053	1.2661031096003974	0.7663413276109834	0.43655594704808276	1.0803747523180953	0.9104039049413748	0.5062418719046131	0.8252561984240139	0.9314709893256645	0.5130589708487082	0.5694992455751912	0.8826733084386038	0.44546937369714557	0.44293236049271056	0.8602117717388338	0.47104095025431403	0.43313800805796865	0.8314677302745801	0.4998158615264622	0.4150856437269861	0.9010581531131792	0.11653726013727081	1.0981278493348434	0.9588455638947666	0.03627383708464167	0.8415321541586475	0.9896401912613719	0.0027087081494847516	0.5999238877840068	0.9557765433558991	0.005088931955752412	0.4808964350983481	0.9414690143980615	-0.05200287951600861	0.46229855075571963	0.9364444645895913	-0.028598226079803786	0.46036196144109065	0.9323961735956643	
